inDegrees=no
num_controls=7
num_derivatives=13
num_iterations=146
num_multipliers=7
num_parameters=0
num_slacks=7
num_states=26
objective=5.827512
objective_accelerations=0.661164
objective_balance=0.128524
objective_effort=0.424702
objective_height=4.520532
objective_ligament=0.092590
solver_duration=1690.658632
status=Solve_Succeeded
success=true
DataType=double
version=3
OpenSimVersion=4.4-2022-07-23-0e9fedc
endheader
time	/jointset/ground_pelvis/pelvis_tilt/value	/jointset/ground_pelvis/pelvis_tx/value	/jointset/ground_pelvis/pelvis_ty/value	/jointset/hip_l/hip_flexion_l/value	/jointset/hip_l/hip_adduction_l/value	/jointset/hip_l/hip_rotation_l/value	/jointset/back/lumbar_extension/value	/jointset/patellofemoral_l/patellar_flexion_l/value	/jointset/knee_l/knee_flexion_l/value	/jointset/knee_l/knee_adduction_l/value	/jointset/knee_l/knee_rotation_l/value	/jointset/ankle_l/ankle_angle_l/value	/jointset/subtalar_l/subtalar_angle_l/value	/jointset/ground_pelvis/pelvis_tilt/speed	/jointset/ground_pelvis/pelvis_tx/speed	/jointset/ground_pelvis/pelvis_ty/speed	/jointset/hip_l/hip_flexion_l/speed	/jointset/hip_l/hip_adduction_l/speed	/jointset/hip_l/hip_rotation_l/speed	/jointset/back/lumbar_extension/speed	/jointset/patellofemoral_l/patellar_flexion_l/speed	/jointset/knee_l/knee_flexion_l/speed	/jointset/knee_l/knee_adduction_l/speed	/jointset/knee_l/knee_rotation_l/speed	/jointset/ankle_l/ankle_angle_l/speed	/jointset/subtalar_l/subtalar_angle_l/speed	/forceset/tau_hip_flexion_l	/forceset/tau_hip_adduction_l	/forceset/tau_hip_rotation_l	/forceset/tau_knee_flexion_l	/forceset/tau_ankle_angle_l	/forceset/tau_subtalar_angle_l	/forceset/tau_lumbar_extension	lambda_cid13_p0	lambda_cid13_p1	lambda_cid13_p2	lambda_cid13_p3	lambda_cid13_p4	lambda_cid13_p5	lambda_cid14_p0	/jointset/ground_pelvis/pelvis_tilt/accel	/jointset/ground_pelvis/pelvis_tx/accel	/jointset/ground_pelvis/pelvis_ty/accel	/jointset/hip_l/hip_flexion_l/accel	/jointset/hip_l/hip_adduction_l/accel	/jointset/hip_l/hip_rotation_l/accel	/jointset/back/lumbar_extension/accel	/jointset/patellofemoral_l/patellar_flexion_l/accel	/jointset/knee_l/knee_flexion_l/accel	/jointset/knee_l/knee_adduction_l/accel	/jointset/knee_l/knee_rotation_l/accel	/jointset/ankle_l/ankle_angle_l/accel	/jointset/subtalar_l/subtalar_angle_l/accel	gamma_cid13_p0	gamma_cid13_p1	gamma_cid13_p2	gamma_cid13_p3	gamma_cid13_p4	gamma_cid13_p5	gamma_cid14_p0
0.5	-0.4195389699164859	-0.0405013672424125	0.7670255132946325	1.225611957136125	-0.3062228828923639	-0.02371367191493524	-0.3278183493318622	0.7453302396747294	0.7453302396744096	-0.1687384137899465	0.1733404948059144	0.1135445202273805	-0.03046364114189571	-0.6672771011930181	-0.1949595052083405	-0.4913121801746048	2.279388406430551	-0.01162085178902636	0.6741515188854019	-0.6229312182275469	1.92473616139827	1.924736161398302	-0.01042354648791615	0.001667479756574739	0.4258091977924373	0.05177201970841477	-0.235552932166277	0.03542485692873657	-0.0213443349114438	-0.2012071135045224	0.07930574592337997	0.0375057847839196	0.2148953072391042	-12.82410191955267	-16.87660463756574	5.524425913538988	-0.310025569318518	-607.0798817365053	-50.5065039912589	-24.97548407598043	0.5817510046009823	0.5936842745871171	-0.3443486513012983	-1.495507730244114	0.6347757725813786	-0.383547907249352	1.789250416762523	-1.254927728430146	-1.254927728429703	-0.0255690517989922	0.002955443324088711	-0.3326673034325814	0.6279099096280466	-3.681406525117243e-07	-9.486325547708331e-07	1.839896906838641e-06	1.27952201795024e-07	-4.304634908928059e-07	-3.121431112378085e-07	-3.714969462955685e-07
0.51	-0.4261812632887498	-0.04242106049248211	0.762096234774109	1.248327049965563	-0.3063089093413132	-0.01699121403805672	-0.3339581543243282	0.764511692483459	0.7645116924833539	-0.1688469933934967	0.1733577498352374	0.1177847410307042	-0.02991631325256665	-0.6610988522444051	-0.1889643700961432	-0.4944404934128787	2.263330226890569	-0.00560907224970734	0.670259088796086	-0.6049645014081306	1.911291705839235	1.911291705839561	-0.01128951084450897	0.001785646541090774	0.4221613912785301	0.05766767559910323	-0.2433269758932527	0.03610454508622647	-0.02136975309051431	-0.2026595286389934	0.07725303778991349	0.03783890587695269	0.2209711244691517	-13.71479975707681	-16.75712532450641	5.381787615184464	-0.04452994866671574	-611.5747040106157	-50.04322232037636	-23.82539535045558	0.6482305689824603	0.6046691606896394	-0.2816998863651485	-1.706011714522865	0.5805215264395664	-0.4045635396191065	1.81017414555442	-1.428536749156907	-1.428536749113236	-0.1167503420185306	0.01619379036596838	-0.3918820012295105	0.5664446904685226	-3.398754288628376e-07	-8.521663350181307e-07	1.735275597049273e-06	1.199593692298233e-07	-3.891319173153816e-07	-2.508683891156897e-07	-3.47279940765402e-07
0.52	-0.4327593004256787	-0.04428035418519676	0.7571387476759541	1.270872553269933	-0.3063355894985296	-0.01031017505807156	-0.3399163337823826	0.7835508342806431	0.783550834280804	-0.1689641606833762	0.1733761758314081	0.1219862748337059	-0.0293108185519948	-0.6544258541362162	-0.1828795937373485	-0.4969538957011623	2.245470501404771	0.0002484065629807718	0.6658677395128757	-0.5866061113477806	1.896273959099561	1.896273959100179	-0.01214108377828232	0.001901673099602097	0.4180717977302206	0.06340538195697033	-0.2511010196200976	0.03678423324353393	-0.02139517126782768	-0.2041119437736925	0.07520032965635266	0.03817202696976911	0.227046941699372	-14.60882093544061	-16.64060055585755	5.243661155938554	0.2006678054498245	-616.1432132888027	-49.6580652212531	-22.67329035584365	0.6807008365179281	0.6116125239045049	-0.2213664613036332	-1.855816919406444	0.6039156272555565	-0.483331746028112	1.867585064949479	-1.569585964557508	-1.569585964557547	-0.02269076723460536	0.00252739812295931	-0.4210247103159469	0.5963200030633553	-3.111925435061199e-07	-7.585543642333642e-07	1.626799107206642e-06	1.114856880180315e-07	-3.489632394082764e-07	-1.935672766507365e-07	-3.226427261209982e-07
0.53	-0.4392682800557148	-0.04607842996542954	0.7521591917167172	1.293230870740647	-0.3063043274013932	-0.00367555721202285	-0.3456890919519937	0.8024322832185269	0.8024322832182611	-0.1690893448098319	0.1733957323133473	0.1261448727947161	-0.02864857048113658	-0.647294519996258	-0.1767276371528209	-0.4988535317415709	2.225913573191987	0.005975152461680595	0.6609729542948806	-0.5679005291203988	1.879771955357883	1.879771955357886	-0.01288642536550075	0.002015928215548034	0.4135807666676461	0.06901400205612473	-0.2585948402374875	0.0371876651828613	-0.02140425966798283	-0.2057192898821521	0.07332821418290991	0.03838008480615803	0.2328516440731975	-15.44263930620738	-16.47907231239432	5.096954151607592	0.458253772062968	-620.5918958211134	-49.23718625910947	-21.52048140982077	0.7406489363295411	0.6181974002582205	-0.1587630888267181	-2.047584805143911	0.5525712332420778	-0.5052622981487725	1.878793822201286	-1.727026604577529	-1.727026604669408	-0.0991144562349979	0.01649457936092133	-0.4732008025800259	0.5385274652942362	-2.835815517355981e-07	-6.755788403298608e-07	1.516583743158637e-06	1.029329094216968e-07	-3.130058359216277e-07	-1.429099491444752e-07	-2.986075214870143e-07
0.54	-0.445703686497612	-0.04781474414490781	0.7471637392143986	1.315385228122708	-0.3062166944129044	0.002907570704220088	-0.3512734444952058	0.8211414083138171	0.8211414083131688	-0.1692217140723679	0.1734165553487975	0.1302565487454262	-0.02793115731889739	-0.639711216512559	-0.1705272735864479	-0.5001332043177693	2.204678483662124	0.01152258484300864	0.6555697535383103	-0.548924986070263	1.861809190592048	1.861809190591439	-0.01357811102350121	0.002154983772681246	0.4086873956709796	0.07443840023340696	-0.2660886608545523	0.0375910971222379	-0.02141334806687456	-0.207326635990725	0.07145609870944049	0.03858814264259772	0.238656346447322	-16.28153148830764	-16.31980836067094	4.954210486787272	0.7038910554661477	-625.1359905162698	-48.88827436816913	-20.36868313267905	0.7710947052680026	0.6212939202714964	-0.09737376846201728	-2.191449182821262	0.5680529237815348	-0.5850148537430606	1.921577229500607	-1.861738169388221	-1.861738169388183	-0.0119595813905089	0.007487486360130338	-0.501492697137277	0.559475618688533	-2.571564847838462e-07	-6.043713002098826e-07	1.404444518287666e-06	9.429261882544226e-08	-2.817077147725053e-07	-9.96031922308094e-08	-2.752383704815802e-07
0.55	-0.4520611027283385	-0.04948888939708358	0.74215859687538	1.337319115541969	-0.3060743744485208	0.009434137013046828	-0.3566667699439969	0.8396637923980592	0.8396637923980745	-0.169360419279491	0.1734388209411531	0.1343173771727474	-0.02716030255960281	-0.6317006165430714	-0.1643006757541486	-0.500789725973162	2.181830486079978	0.01690697244005555	0.6496676486548599	-0.5297092827466688	1.842431112096399	1.842431112096563	-0.01415848475336504	0.002300426498499869	0.4034131999536464	0.07969518598681243	-0.2734306341811715	0.03786257408368119	-0.02138609030030069	-0.208901623907549	0.0695044601706518	0.03866477169254531	0.2442848110321197	-17.1455167960356	-16.09597906249211	4.79764015368576	1.029275225969488	-629.5812011343839	-48.4506556825767	-19.21983511879804	0.8267267847289349	0.6235257891792787	-0.03401366553826864	-2.371786108485283	0.518328343906498	-0.6044216728481198	1.926190027502313	-2.011267313653975	-2.011267313537708	-0.08045737730307637	0.01813709717740808	-0.5501479296391434	0.5031076450265524	-2.322290085148917e-07	-5.234634795503066e-07	1.301854184727848e-06	8.859710814531499e-08	-2.521480667186273e-07	-5.679022924889152e-08	-2.520477365126342e-07
0.5600000000000001	-0.4583362761309909	-0.05110073205603837	0.7371500448595206	1.359016460772941	-0.3058792712749809	0.01589935959968624	-0.3618670137308022	0.8579853107724912	0.8579853107732146	-0.1695048044454775	0.1734625538472052	0.1383235106587676	-0.02633801442450453	-0.6232626508960014	-0.1580667549422554	-0.5008151396862008	2.157370045995004	0.02207922668676237	0.6433010090832786	-0.5103086536745325	1.821636048640729	1.821636048641665	-0.01471410282398931	0.002448446483665878	0.3977484074119724	0.08472507539463514	-0.2807726075074449	0.03813405104517018	-0.02135883253242983	-0.2104766118245183	0.067552821631813	0.03874140074253672	0.2499132756172476	-18.01556492351225	-15.8737581985587	4.644377088196473	1.348496525849592	-634.1326112482745	-48.07834249761646	-18.07621043167747	0.8565678407866666	0.6227585161882851	0.02884782000834272	-2.513937683386199	0.5256262537138863	-0.6779217913691018	1.958562379209435	-2.145135161392291	-2.145135161392274	-0.007008449542084021	0.008002938229254868	-0.5796120620082746	0.5140963495716452	-2.09098641065294e-07	-4.309153222432136e-07	1.210722520741413e-06	8.643533336454028e-08	-2.246745863790423e-07	-1.456981898507121e-08	-2.290713229874738e-07
0.5700000000000001	-0.464525102267553	-0.05265024350702551	0.73214438772072	1.380461456862175	-0.3056333620079792	0.02229864042714374	-0.3668724182698108	0.8760920106758691	0.8760920106767225	-0.1696542880686091	0.1734876481974631	0.1422712048404342	-0.02546639238707514	-0.6144391902512947	-0.1518376588196206	-0.5002102803212712	2.131374371358794	0.02706461151308916	0.6364810213170246	-0.490759646506571	1.799480914271243	1.799480914271681	-0.01517691335705286	0.002573383442795167	0.39173501370701	0.08955825345989415	-0.2877142350234588	0.03817763985901738	-0.02132426809398276	-0.2122841697392772	0.06602614432059907	0.03865183689744612	0.2551949081247396	-18.74230614460826	-15.60218709604214	4.480658438625629	1.583316691142013	-638.4943628165059	-47.65664485069435	-16.940262259571	0.9047209288917347	0.6226836627979211	0.09216432969772244	-2.68062954541819	0.4791612099556639	-0.6953465542414676	1.954961031190447	-2.284112022437261	-2.284112022511378	-0.06509007402853467	0.01494303636459775	-0.6205124392867655	0.461690879472597	-1.865048610774196e-07	-3.468208599791783e-07	1.118135279261015e-06	8.358289703648234e-08	-1.987325080365071e-07	2.201424769816092e-08	-2.066123596565255e-07
0.58	-0.4706237966471861	-0.05413752429628219	0.7271479510425658	1.401638846766755	-0.3053387655702147	0.02862745952010333	-0.3716819545080158	0.8939704773459309	0.8939704773469855	-0.1698082343406538	0.1735140327098353	0.1461571032021402	-0.02454768610010266	-0.6052362995034157	-0.145620622596164	-0.4989710475571753	2.103848809055541	0.03181666085398376	0.6292086621511994	-0.4711349935145729	1.775989401993332	1.775989401993272	-0.01560663264372413	0.002706478866266393	0.3853892434201527	0.09414192530396008	-0.2946558625390203	0.03822122867306792	-0.02128970365394885	-0.2140917276541871	0.06449946700937209	0.03856227305258361	0.2604765406326315	-19.4754869480549	-15.33164543793434	4.319568646815647	1.813011283066237	-642.9659147282364	-47.29215614243538	-15.81565750489205	0.9324538614233587	0.6203465363507761	0.1557224998412367	-2.819915216794441	0.4789591566278537	-0.768396071283121	1.973691544017134	-2.412410743077295	-2.412410743077035	-0.0003902002631189956	0.009634631097198395	-0.6460873783899508	0.4641951053327534	-1.646098926676037e-07	-2.737358610270324e-07	1.023652401974527e-06	7.983099450731144e-08	-1.747848136901298e-07	5.125795995085947e-08	-1.848272849505976e-07
